<svg width="205" height="41" viewBox="0 0 205 41" fill="none" xmlns="http://www.w3.org/2000/svg">
<rect x="7" y="10" width="101" height="22" fill="#D83A3C"/>
<path d="M26.112 23.168L17.52 28.736L26.112 34.352L21.84 40.976L10.32 33.536V37.952H2.4V3.536H2.448H26.112V23.168ZM18.24 11.408H10.32V23.984L18.24 18.896V11.408ZM54.7526 37.952H31.0406V3.536H38.9606V30.032H46.8326V3.536H54.7526V37.952ZM75.9521 3.536H83.8241V37.952H75.9521V34.112L68.0321 29.024V37.952H60.1601V3.536H68.0321V7.184L75.9521 12.32V3.536ZM68.0321 19.568L75.9521 24.704V21.728L68.0321 16.592V19.568ZM113.211 11.408H97.4194V24.512L108.939 17.024L113.211 23.648L103.371 30.032H113.211V37.952H89.4994V3.536H113.211V11.408Z" fill="#E9E6E1"/>
<path d="M130.183 13.8438V3.60352H131.338L131.399 4.41016C131.5 4.28255 131.609 4.16862 131.728 4.06836C131.846 3.96354 131.974 3.87467 132.11 3.80176C132.302 3.69238 132.514 3.61035 132.746 3.55566C132.983 3.49642 133.236 3.4668 133.505 3.4668C133.979 3.4668 134.398 3.56022 134.763 3.74707C135.127 3.93392 135.433 4.19368 135.679 4.52637C135.925 4.85905 136.112 5.25781 136.239 5.72266C136.367 6.18294 136.431 6.6888 136.431 7.24023V7.38379C136.431 7.91243 136.367 8.4069 136.239 8.86719C136.112 9.32292 135.925 9.7194 135.679 10.0566C135.433 10.3939 135.127 10.6582 134.763 10.8496C134.403 11.041 133.99 11.1367 133.525 11.1367C133.243 11.1367 132.979 11.1071 132.732 11.0479C132.491 10.9886 132.272 10.9043 132.076 10.7949C131.958 10.7266 131.846 10.6514 131.741 10.5693C131.636 10.4827 131.538 10.3893 131.447 10.2891V13.8438H130.183ZM135.166 7.24023C135.166 6.88021 135.125 6.53841 135.043 6.21484C134.965 5.88672 134.845 5.59733 134.681 5.34668C134.512 5.10059 134.3 4.90462 134.045 4.75879C133.79 4.61296 133.484 4.54004 133.129 4.54004C132.933 4.54004 132.751 4.56283 132.582 4.6084C132.418 4.65397 132.27 4.72005 132.138 4.80664C131.992 4.89323 131.862 5.00033 131.748 5.12793C131.634 5.25553 131.534 5.39681 131.447 5.55176V9.11328C131.525 9.25 131.614 9.3776 131.714 9.49609C131.814 9.61458 131.928 9.71484 132.056 9.79688C132.201 9.89258 132.363 9.96777 132.541 10.0225C132.723 10.0771 132.924 10.1045 133.143 10.1045C133.493 10.1045 133.797 10.0316 134.052 9.88574C134.307 9.73535 134.517 9.53483 134.681 9.28418C134.845 9.03353 134.965 8.74414 135.043 8.41602C135.125 8.08789 135.166 7.74382 135.166 7.38379V7.24023ZM143.444 3.4668C143.677 3.4668 143.918 3.48275 144.169 3.51465C144.424 3.54655 144.616 3.58984 144.743 3.64453L144.572 4.88184C144.326 4.82715 144.091 4.78841 143.868 4.76562C143.649 4.73828 143.419 4.72461 143.178 4.72461C142.868 4.72461 142.588 4.76335 142.337 4.84082C142.086 4.91374 141.868 5.02311 141.681 5.16895C141.512 5.29655 141.364 5.45378 141.236 5.64062C141.113 5.82292 141.011 6.02799 140.929 6.25586V11H139.657V3.60352H140.86L140.915 4.59473L140.922 4.7793C141.223 4.3737 141.583 4.05469 142.002 3.82227C142.426 3.58529 142.907 3.4668 143.444 3.4668ZM150.273 11.1367C149.754 11.1367 149.275 11.0479 148.838 10.8701C148.405 10.6924 148.034 10.444 147.724 10.125C147.414 9.80599 147.172 9.42773 146.999 8.99023C146.826 8.55273 146.739 8.0765 146.739 7.56152V7.27441C146.739 6.67741 146.835 6.14421 147.026 5.6748C147.218 5.20085 147.473 4.7998 147.792 4.47168C148.106 4.14811 148.464 3.89974 148.865 3.72656C149.271 3.55339 149.686 3.4668 150.109 3.4668C150.643 3.4668 151.107 3.56022 151.504 3.74707C151.905 3.92936 152.238 4.18229 152.502 4.50586C152.766 4.83398 152.962 5.21908 153.09 5.66113C153.222 6.10319 153.288 6.58171 153.288 7.09668V7.66406H148.004V7.71191C148.036 8.07194 148.106 8.38867 148.216 8.66211C148.33 8.93555 148.485 9.17708 148.681 9.38672C148.881 9.61003 149.123 9.78548 149.405 9.91309C149.688 10.0407 150 10.1045 150.342 10.1045C150.793 10.1045 151.194 10.0133 151.545 9.83105C151.896 9.64876 152.188 9.40723 152.42 9.10645L153.192 9.70801C152.946 10.0817 152.577 10.4144 152.085 10.7061C151.597 10.9932 150.993 11.1367 150.273 11.1367ZM150.109 4.50586C149.854 4.50586 149.613 4.55371 149.385 4.64941C149.157 4.74056 148.952 4.875 148.77 5.05273C148.587 5.23503 148.432 5.45833 148.305 5.72266C148.182 5.98242 148.095 6.2832 148.045 6.625H152.023V6.56348C152.023 6.33561 151.98 6.0918 151.894 5.83203C151.807 5.56771 151.686 5.33984 151.531 5.14844C151.376 4.95703 151.18 4.80208 150.943 4.68359C150.711 4.5651 150.433 4.50586 150.109 4.50586ZM160.944 7.16504H155.715V6.12598H160.944V7.16504ZM168.683 11C168.632 10.9043 168.591 10.7858 168.56 10.6445C168.532 10.4987 168.512 10.3483 168.498 10.1934C168.37 10.321 168.227 10.4417 168.067 10.5557C167.912 10.6696 167.742 10.7699 167.555 10.8564C167.363 10.943 167.16 11.0114 166.946 11.0615C166.732 11.1117 166.504 11.1367 166.263 11.1367C165.871 11.1367 165.515 11.0798 165.196 10.9658C164.882 10.8519 164.615 10.6969 164.396 10.501C164.173 10.3096 164 10.0817 163.877 9.81738C163.758 9.5485 163.699 9.25911 163.699 8.94922C163.699 8.54362 163.779 8.18815 163.938 7.88281C164.103 7.57747 164.333 7.32227 164.629 7.11719C164.925 6.91667 165.281 6.76628 165.695 6.66602C166.115 6.56576 166.582 6.51562 167.097 6.51562H168.478V5.93457C168.478 5.71126 168.437 5.51074 168.354 5.33301C168.272 5.15527 168.156 5.0026 168.006 4.875C167.855 4.75195 167.671 4.65625 167.452 4.58789C167.238 4.51953 166.996 4.48535 166.728 4.48535C166.477 4.48535 166.251 4.51725 166.051 4.58105C165.855 4.64486 165.688 4.72917 165.552 4.83398C165.415 4.9388 165.308 5.06413 165.23 5.20996C165.158 5.35124 165.121 5.49935 165.121 5.6543H163.85C163.854 5.38542 163.923 5.12109 164.055 4.86133C164.191 4.60156 164.387 4.36686 164.643 4.15723C164.893 3.95215 165.199 3.78581 165.559 3.6582C165.923 3.5306 166.336 3.4668 166.796 3.4668C167.215 3.4668 167.605 3.51921 167.965 3.62402C168.325 3.72428 168.637 3.87695 168.901 4.08203C169.161 4.29167 169.366 4.55143 169.517 4.86133C169.667 5.17122 169.742 5.53353 169.742 5.94824V9.38672C169.742 9.63281 169.765 9.89486 169.811 10.1729C169.856 10.4463 169.92 10.6855 170.002 10.8906V11H168.683ZM166.447 10.0361C166.693 10.0361 166.924 10.0042 167.138 9.94043C167.352 9.87663 167.548 9.79232 167.726 9.6875C167.899 9.58268 168.049 9.46419 168.177 9.33203C168.304 9.19531 168.405 9.05404 168.478 8.9082V7.41113H167.302C166.864 7.41113 166.481 7.44987 166.153 7.52734C165.83 7.60026 165.572 7.71419 165.381 7.86914C165.244 7.97852 165.139 8.1084 165.066 8.25879C164.998 8.40918 164.964 8.58008 164.964 8.77148C164.964 8.95378 164.993 9.1224 165.053 9.27734C165.117 9.43229 165.21 9.56445 165.333 9.67383C165.456 9.78776 165.611 9.87663 165.798 9.94043C165.985 10.0042 166.201 10.0361 166.447 10.0361ZM172.429 0.5H176.209V9.90625H178.622V11H172.429V9.90625H174.944V1.60059H172.429V0.5ZM180.632 13.8438V3.60352H181.787L181.849 4.41016C181.949 4.28255 182.058 4.16862 182.177 4.06836C182.295 3.96354 182.423 3.87467 182.56 3.80176C182.751 3.69238 182.963 3.61035 183.195 3.55566C183.432 3.49642 183.685 3.4668 183.954 3.4668C184.428 3.4668 184.847 3.56022 185.212 3.74707C185.576 3.93392 185.882 4.19368 186.128 4.52637C186.374 4.85905 186.561 5.25781 186.688 5.72266C186.816 6.18294 186.88 6.6888 186.88 7.24023V7.38379C186.88 7.91243 186.816 8.4069 186.688 8.86719C186.561 9.32292 186.374 9.7194 186.128 10.0566C185.882 10.3939 185.576 10.6582 185.212 10.8496C184.852 11.041 184.439 11.1367 183.975 11.1367C183.692 11.1367 183.428 11.1071 183.182 11.0479C182.94 10.9886 182.721 10.9043 182.525 10.7949C182.407 10.7266 182.295 10.6514 182.19 10.5693C182.086 10.4827 181.988 10.3893 181.896 10.2891V13.8438H180.632ZM185.615 7.24023C185.615 6.88021 185.574 6.53841 185.492 6.21484C185.415 5.88672 185.294 5.59733 185.13 5.34668C184.961 5.10059 184.749 4.90462 184.494 4.75879C184.239 4.61296 183.934 4.54004 183.578 4.54004C183.382 4.54004 183.2 4.56283 183.031 4.6084C182.867 4.65397 182.719 4.72005 182.587 4.80664C182.441 4.89323 182.311 5.00033 182.197 5.12793C182.083 5.25553 181.983 5.39681 181.896 5.55176V9.11328C181.974 9.25 182.063 9.3776 182.163 9.49609C182.263 9.61458 182.377 9.71484 182.505 9.79688C182.651 9.89258 182.812 9.96777 182.99 10.0225C183.173 10.0771 183.373 10.1045 183.592 10.1045C183.943 10.1045 184.246 10.0316 184.501 9.88574C184.756 9.73535 184.966 9.53483 185.13 9.28418C185.294 9.03353 185.415 8.74414 185.492 8.41602C185.574 8.08789 185.615 7.74382 185.615 7.38379V7.24023ZM190.312 4.7041C190.412 4.55371 190.523 4.41699 190.646 4.29395C190.77 4.16634 190.899 4.05469 191.036 3.95898C191.255 3.79948 191.494 3.67871 191.754 3.59668C192.018 3.51465 192.299 3.47135 192.595 3.4668C192.982 3.4668 193.333 3.52376 193.647 3.6377C193.966 3.74707 194.238 3.92025 194.461 4.15723C194.684 4.39421 194.855 4.69499 194.974 5.05957C195.097 5.4196 195.158 5.84798 195.158 6.34473V11H193.894V6.33105C193.894 6.03939 193.859 5.78418 193.791 5.56543C193.723 5.34212 193.622 5.15755 193.49 5.01172C193.349 4.85221 193.171 4.73372 192.957 4.65625C192.743 4.57422 192.497 4.53548 192.219 4.54004C191.991 4.54004 191.774 4.57194 191.569 4.63574C191.364 4.69954 191.175 4.79069 191.002 4.90918C190.865 5.00033 190.738 5.10742 190.619 5.23047C190.505 5.34896 190.403 5.48112 190.312 5.62695V11H189.047V0.5H190.312V4.7041ZM202.315 11C202.265 10.9043 202.224 10.7858 202.192 10.6445C202.165 10.4987 202.145 10.3483 202.131 10.1934C202.003 10.321 201.86 10.4417 201.7 10.5557C201.545 10.6696 201.374 10.7699 201.188 10.8564C200.996 10.943 200.793 11.0114 200.579 11.0615C200.365 11.1117 200.137 11.1367 199.896 11.1367C199.504 11.1367 199.148 11.0798 198.829 10.9658C198.515 10.8519 198.248 10.6969 198.029 10.501C197.806 10.3096 197.633 10.0817 197.51 9.81738C197.391 9.5485 197.332 9.25911 197.332 8.94922C197.332 8.54362 197.412 8.18815 197.571 7.88281C197.735 7.57747 197.965 7.32227 198.262 7.11719C198.558 6.91667 198.913 6.76628 199.328 6.66602C199.747 6.56576 200.215 6.51562 200.729 6.51562H202.11V5.93457C202.11 5.71126 202.069 5.51074 201.987 5.33301C201.905 5.15527 201.789 5.0026 201.639 4.875C201.488 4.75195 201.304 4.65625 201.085 4.58789C200.871 4.51953 200.629 4.48535 200.36 4.48535C200.11 4.48535 199.884 4.51725 199.684 4.58105C199.488 4.64486 199.321 4.72917 199.185 4.83398C199.048 4.9388 198.941 5.06413 198.863 5.20996C198.79 5.35124 198.754 5.49935 198.754 5.6543H197.482C197.487 5.38542 197.555 5.12109 197.688 4.86133C197.824 4.60156 198.02 4.36686 198.275 4.15723C198.526 3.95215 198.831 3.78581 199.191 3.6582C199.556 3.5306 199.968 3.4668 200.429 3.4668C200.848 3.4668 201.238 3.51921 201.598 3.62402C201.958 3.72428 202.27 3.87695 202.534 4.08203C202.794 4.29167 202.999 4.55143 203.149 4.86133C203.3 5.17122 203.375 5.53353 203.375 5.94824V9.38672C203.375 9.63281 203.398 9.89486 203.443 10.1729C203.489 10.4463 203.553 10.6855 203.635 10.8906V11H202.315ZM200.08 10.0361C200.326 10.0361 200.556 10.0042 200.771 9.94043C200.985 9.87663 201.181 9.79232 201.358 9.6875C201.532 9.58268 201.682 9.46419 201.81 9.33203C201.937 9.19531 202.037 9.05404 202.11 8.9082V7.41113H200.935C200.497 7.41113 200.114 7.44987 199.786 7.52734C199.463 7.60026 199.205 7.71419 199.014 7.86914C198.877 7.97852 198.772 8.1084 198.699 8.25879C198.631 8.40918 198.597 8.58008 198.597 8.77148C198.597 8.95378 198.626 9.1224 198.686 9.27734C198.749 9.43229 198.843 9.56445 198.966 9.67383C199.089 9.78776 199.244 9.87663 199.431 9.94043C199.618 10.0042 199.834 10.0361 200.08 10.0361Z" fill="#D83A3C"/>
</svg>
